HIERARCHY
ROOT Bip01
{
  OFFSET 15.7446 31.5610 57.6474
  CHANNELS 6 Xposition Yposition Zposition Zrotation Xrotation Yrotation
  JOINT Bip01_Footsteps
  {
    OFFSET 53.2821 -0.0001 8.1953
    CHANNELS 6 Xposition Yposition Zposition Zrotation Xrotation Yrotation
    End Site
    {
      OFFSET 0 0 0
    }
  }
  JOINT b_Hips
  {
    OFFSET 0.0000 0.0000 0.0000
    CHANNELS 6 Xposition Yposition Zposition Zrotation Xrotation Yrotation
    JOINT b_Spine
    {
      OFFSET 10.4409 -1.6220 0.0000
      CHANNELS 6 Xposition Yposition Zposition Zrotation Xrotation Yrotation
      JOINT b_Spine1
      {
        OFFSET 8.8514 -0.0090 0.0000
        CHANNELS 6 Xposition Yposition Zposition Zrotation Xrotation Yrotation
        JOINT b_Spine2
        {
          OFFSET 11.3035 -0.0088 -0.0000
          CHANNELS 6 Xposition Yposition Zposition Zrotation Xrotation Yrotation
          JOINT b_Spine3
          {
            OFFSET 11.0297 -0.0113 0.0000
            CHANNELS 6 Xposition Yposition Zposition Zrotation Xrotation Yrotation
            JOINT b__Neck
            {
              OFFSET 14.9480 -3.1935 0.0000
              CHANNELS 6 Xposition Yposition Zposition Zrotation Xrotation Yrotation
              JOINT b__Neck1
              {
                OFFSET 5.4958 -0.0043 -0.0000
                CHANNELS 6 Xposition Yposition Zposition Zrotation Xrotation Yrotation
                JOINT b__Neck2
                {
                  OFFSET 5.5266 -0.0049 0.0000
                  CHANNELS 6 Xposition Yposition Zposition Zrotation Xrotation Yrotation
                  JOINT b_Head
                  {
                    OFFSET 6.1093 0.0000 -0.0000
                    CHANNELS 6 Xposition Yposition Zposition Zrotation Xrotation Yrotation
                    JOINT Bip01_HeadNub
                    {
                      OFFSET 28.6688 0.0000 -0.0000
                      CHANNELS 6 Xposition Yposition Zposition Zrotation Xrotation Yrotation
                      End Site
                      {
                        OFFSET 0 0 0
                      }
                    }
                    JOINT Dog_Jaw
                    {
                      OFFSET 0.6075 2.3575 -0.0000
                      CHANNELS 6 Xposition Yposition Zposition Zrotation Xrotation Yrotation
                      End Site
                      {
                        OFFSET 0 0 0
                      }
                    }
                  }
                }
              }
            }
            JOINT b_LeftClav
            {
              OFFSET 10.4683 2.1257 3.5190
              CHANNELS 6 Xposition Yposition Zposition Zrotation Xrotation Yrotation
              JOINT b_LeftArm
              {
                OFFSET 7.3453 0.0000 0.0000
                CHANNELS 6 Xposition Yposition Zposition Zrotation Xrotation Yrotation
                JOINT b_LeftForeArm
                {
                  OFFSET 23.3863 -0.0000 0.0000
                  CHANNELS 6 Xposition Yposition Zposition Zrotation Xrotation Yrotation
                  JOINT b_LeftHand
                  {
                    OFFSET 21.5040 0.0000 0.0000
                    CHANNELS 6 Xposition Yposition Zposition Zrotation Xrotation Yrotation
                    JOINT b__LeftFinger
                    {
                      OFFSET 1.5926 6.2126 -0.0138
                      CHANNELS 6 Xposition Yposition Zposition Zrotation Xrotation Yrotation
                      JOINT Bip01_L_Finger0Nub
                      {
                        OFFSET 23.3657 0.0000 0.0000
                        CHANNELS 6 Xposition Yposition Zposition Zrotation Xrotation Yrotation
                        End Site
                        {
                          OFFSET 0 0 0
                        }
                      }
                    }
                  }
                }
                JOINT Dog_LeftArmor002
                {
                  OFFSET 4.2035 4.4457 12.7354
                  CHANNELS 6 Xposition Yposition Zposition Zrotation Xrotation Yrotation
                  End Site
                  {
                    OFFSET 0 0 0
                  }
                }
              }
            }
            JOINT b_RightClav
            {
              OFFSET 10.4683 2.1257 -3.5189
              CHANNELS 6 Xposition Yposition Zposition Zrotation Xrotation Yrotation
              JOINT b_RightArm
              {
                OFFSET 7.3453 -0.0000 -0.0000
                CHANNELS 6 Xposition Yposition Zposition Zrotation Xrotation Yrotation
                JOINT b_RightForeArm
                {
                  OFFSET 23.3863 0.0000 0.0000
                  CHANNELS 6 Xposition Yposition Zposition Zrotation Xrotation Yrotation
                  JOINT b_RightHand
                  {
                    OFFSET 21.5040 0.0000 0.0000
                    CHANNELS 6 Xposition Yposition Zposition Zrotation Xrotation Yrotation
                    JOINT b_RightFinger
                    {
                      OFFSET 1.5926 6.2126 0.0138
                      CHANNELS 6 Xposition Yposition Zposition Zrotation Xrotation Yrotation
                      JOINT Bip01_R_Finger0Nub
                      {
                        OFFSET 23.3657 0.0000 0.0000
                        CHANNELS 6 Xposition Yposition Zposition Zrotation Xrotation Yrotation
                        End Site
                        {
                          OFFSET 0 0 0
                        }
                      }
                    }
                  }
                }
                JOINT Dog_RightArmor002
                {
                  OFFSET 4.2034 4.4457 -12.7351
                  CHANNELS 6 Xposition Yposition Zposition Zrotation Xrotation Yrotation
                  End Site
                  {
                    OFFSET 0 0 0
                  }
                }
              }
            }
          }
        }
      }
    }
    JOINT b_Tail001
    {
      OFFSET -4.7889 3.8598 0.8608
      CHANNELS 6 Xposition Yposition Zposition Zrotation Xrotation Yrotation
      JOINT b_Tail002
      {
        OFFSET 4.2212 0.0000 -0.0000
        CHANNELS 6 Xposition Yposition Zposition Zrotation Xrotation Yrotation
        JOINT b_Tail003
        {
          OFFSET 4.9750 0.0000 -0.0000
          CHANNELS 6 Xposition Yposition Zposition Zrotation Xrotation Yrotation
          JOINT b_Tail004
          {
            OFFSET 4.7171 -0.0000 0.0000
            CHANNELS 6 Xposition Yposition Zposition Zrotation Xrotation Yrotation
            JOINT b_Tail005
            {
              OFFSET 9.7173 -0.0000 -0.0001
              CHANNELS 6 Xposition Yposition Zposition Zrotation Xrotation Yrotation
              JOINT b_Tail006
              {
                OFFSET 8.2617 0.0001 0.0000
                CHANNELS 6 Xposition Yposition Zposition Zrotation Xrotation Yrotation
                JOINT b_Tail007
                {
                  OFFSET 9.7599 -0.0001 0.0000
                  CHANNELS 6 Xposition Yposition Zposition Zrotation Xrotation Yrotation
                  JOINT b_Tail008
                  {
                    OFFSET 11.1530 0.0000 -0.0000
                    CHANNELS 6 Xposition Yposition Zposition Zrotation Xrotation Yrotation
                    JOINT b_Tail009
                    {
                      OFFSET 10.3039 0.0000 0.0000
                      CHANNELS 6 Xposition Yposition Zposition Zrotation Xrotation Yrotation
                      End Site
                      {
                        OFFSET 0 0 0
                      }
                    }
                  }
                }
              }
            }
          }
        }
      }
    }
    JOINT Dog_LeftTail001
    {
      OFFSET -11.9878 -1.7857 10.1900
      CHANNELS 6 Xposition Yposition Zposition Zrotation Xrotation Yrotation
      JOINT Dog_LeftTail002
      {
        OFFSET 8.4424 0.0000 0.0000
        CHANNELS 6 Xposition Yposition Zposition Zrotation Xrotation Yrotation
        JOINT Dog_LeftTail003
        {
          OFFSET 9.9501 0.0000 -0.0000
          CHANNELS 6 Xposition Yposition Zposition Zrotation Xrotation Yrotation
          JOINT Dog_LeftTail004
          {
            OFFSET 9.4342 0.0000 -0.0000
            CHANNELS 6 Xposition Yposition Zposition Zrotation Xrotation Yrotation
            JOINT Dog_LeftTail005
            {
              OFFSET 9.7173 0.0001 0.0001
              CHANNELS 6 Xposition Yposition Zposition Zrotation Xrotation Yrotation
              JOINT Dog_LeftTail006
              {
                OFFSET 8.2618 -0.0000 -0.0000
                CHANNELS 6 Xposition Yposition Zposition Zrotation Xrotation Yrotation
                JOINT Dog_LeftTail007
                {
                  OFFSET 9.7599 0.0000 0.0000
                  CHANNELS 6 Xposition Yposition Zposition Zrotation Xrotation Yrotation
                  JOINT Dog_LeftTail008
                  {
                    OFFSET 11.1529 -0.0001 -0.0001
                    CHANNELS 6 Xposition Yposition Zposition Zrotation Xrotation Yrotation
                    JOINT Dog_LeftTail009
                    {
                      OFFSET 10.3039 -0.0000 0.0000
                      CHANNELS 6 Xposition Yposition Zposition Zrotation Xrotation Yrotation
                      End Site
                      {
                        OFFSET 0 0 0
                      }
                    }
                  }
                }
              }
            }
          }
        }
      }
    }
    JOINT b_LeftLegUpper
    {
      OFFSET -0.0000 0.0000 9.9422
      CHANNELS 6 Xposition Yposition Zposition Zrotation Xrotation Yrotation
      JOINT b_LeftLeg
      {
        OFFSET 25.9795 0.0000 0.0000
        CHANNELS 6 Xposition Yposition Zposition Zrotation Xrotation Yrotation
        JOINT b_LeftLeg1
        {
          OFFSET 21.2087 0.0000 -0.0000
          CHANNELS 6 Xposition Yposition Zposition Zrotation Xrotation Yrotation
          JOINT b_LeftAnkle
          {
            OFFSET 10.4341 -0.0000 0.0000
            CHANNELS 6 Xposition Yposition Zposition Zrotation Xrotation Yrotation
            JOINT b_LeftToe
            {
              OFFSET 5.6676 6.5983 -0.0000
              CHANNELS 6 Xposition Yposition Zposition Zrotation Xrotation Yrotation
              JOINT Bip01_L_Toe0Nub
              {
                OFFSET 8.6279 -0.0000 0.0000
                CHANNELS 6 Xposition Yposition Zposition Zrotation Xrotation Yrotation
                End Site
                {
                  OFFSET 0 0 0
                }
              }
            }
            JOINT b_LeftToe002
            {
              OFFSET 5.6741 -2.3619 -0.5306
              CHANNELS 6 Xposition Yposition Zposition Zrotation Xrotation Yrotation
              End Site
              {
                OFFSET 0 0 0
              }
            }
          }
        }
      }
      JOINT Dog_LeftArmor001
      {
        OFFSET -2.6287 -3.4254 -3.1462
        CHANNELS 6 Xposition Yposition Zposition Zrotation Xrotation Yrotation
        End Site
        {
          OFFSET 0 0 0
        }
      }
    }
    JOINT b_RightLegUpper
    {
      OFFSET 0.0000 -0.0000 -9.9422
      CHANNELS 6 Xposition Yposition Zposition Zrotation Xrotation Yrotation
      JOINT b_RightLeg
      {
        OFFSET 25.9795 0.0000 0.0000
        CHANNELS 6 Xposition Yposition Zposition Zrotation Xrotation Yrotation
        JOINT b_RightLeg1
        {
          OFFSET 21.2087 0.0000 0.0000
          CHANNELS 6 Xposition Yposition Zposition Zrotation Xrotation Yrotation
          JOINT b_RightAnkle
          {
            OFFSET 10.4341 -0.0000 -0.0000
            CHANNELS 6 Xposition Yposition Zposition Zrotation Xrotation Yrotation
            JOINT b_RightToe
            {
              OFFSET 5.6676 6.5983 -0.0000
              CHANNELS 6 Xposition Yposition Zposition Zrotation Xrotation Yrotation
              JOINT Bip01_R_Toe0Nub
              {
                OFFSET 8.6279 -0.0000 0.0000
                CHANNELS 6 Xposition Yposition Zposition Zrotation Xrotation Yrotation
                End Site
                {
                  OFFSET 0 0 0
                }
              }
            }
            JOINT b_RightToe002
            {
              OFFSET 5.6741 -2.3620 0.5304
              CHANNELS 6 Xposition Yposition Zposition Zrotation Xrotation Yrotation
              End Site
              {
                OFFSET 0 0 0
              }
            }
          }
        }
      }
      JOINT Dog_RightArmor001
      {
        OFFSET -2.6288 -3.4254 3.1460
        CHANNELS 6 Xposition Yposition Zposition Zrotation Xrotation Yrotation
        End Site
        {
          OFFSET 0 0 0
        }
      }
    }
  }
}
MOTION
Frames: 4
Frame Time: 0.00833333
-58.1901 57.6329 597.504 87.6517 -21.4529 -171.357 53.2821 -6.35e-05 8.19533 -90 -81.2558 -180 0 0 0 -89.9999 -4.1675e-14 -90 10.4409 -1.622 1.78e-05 -0.135485 -1.33006 -3.24067 8.8514 -0.0089989 -2.84217e-14 -6.33485 2.52041 1.11167 11.3035 -0.0087814 0 -5.85877 6.35339 -0.966134 11.0297 -0.0113029 0 0.0863721 4.21444 -2.93441 14.948 -3.19349 8.6e-06 -45.9391 -9.62491 -37.0487 5.49578 -0.0042877 0 17.2755 3.89194 30.9509 5.52657 -0.0048637 0 -2.3915 2.91777 -0.919621 6.10934 0 0 36.4575 -2.63735 7.93636 28.6688 7.10543e-15 0 -0 0 -0 0.607494 2.35752 -7.6e-06 -156.427 -0.000147608 180 10.4683 2.1257 3.51896 -174.029 8.60147 -90.1167 7.34534 0 1.9e-06 -111.946 -89.3463 -17.8581 23.3863 -1.9e-06 1e-06 -1.03209 -0.59174 -1.25258 21.504 0 0 -86.8547 -5.84536 0.876525 1.59262 6.21256 -0.0138378 1.56975 -6.488 -4.84874 23.3657 -7.10543e-15 1e-06 -1.59028e-15 -2.38542e-15 -0 4.20345 4.44573 12.7354 172.377 0.21838 -87.1877 10.4683 2.12572 -3.51895 177.43 8.94207 93.936 7.34534 0 -1.9e-06 -37.962 67.7151 -52.3833 23.3863 1.9e-06 0 -12.888 3.97569e-16 4.47266e-15 21.504 3.8e-06 1e-06 -98.6477 -12.9232 23.5462 1.59262 6.21257 0.0138388 -14.4208 -3.6712 2.88815 23.3657 -2.84217e-14 1e-06 180 -4.77083e-15 -0 4.20337 4.4457 -12.7351 172.377 -0.218352 87.1876 -4.78895 3.85983 0.86083 129.563 9.27199 9.44902 4.22117 3.815e-05 -5.7e-06 -22.0188 -14.4301 -1.68955 4.97505 3.8e-06 -6.7e-06 -47.3764 -11.6837 8.69001 4.7171 -1.145e-05 2.86e-05 -6.36111e-15 -1.49089e-16 -3.04389e-16 9.71734 -4.2e-05 -5.72e-05 -3.18055e-15 -1.49089e-16 -2.85753e-16 8.26175 8.01e-05 5.7e-06 -1.01296e-33 -1.98785e-16 -2.91965e-16 9.75986 -6.48e-05 2.86e-05 2.02053e-32 6.21202e-16 -1.86361e-15 11.153 2.67e-05 -2.1e-05 2.4513e-32 6.70898e-16 -2.09345e-15 10.3039 1.14e-05 4.2e-05 -6.30404e-34 -4.96962e-17 -7.26806e-16 -11.9878 -1.78568 10.19 170.606 3.62573 1.11034 8.44238 1.53e-05 4.2e-05 -9.93923e-17 -4.22417e-16 6.36111e-15 9.95005 7.6e-06 -2.86e-05 3.03456e-32 -2.73329e-16 6.36111e-15 9.43418 -7.10543e-15 -4.58e-05 1.10348e-32 -9.93923e-17 6.36111e-15 9.71733 6.87e-05 0.0001106 9.93923e-17 2.23633e-16 -0 8.26175 -2.29e-05 -4.77e-05 -4.96564e-32 4.47266e-16 6.36111e-15 9.75994 2.86e-05 3.05e-05 -2.20695e-32 1.98785e-16 6.36111e-15 11.1529 -7.25e-05 -5.91e-05 -9.93923e-17 1.2424e-16 6.36111e-15 10.3039 -7.6e-06 0 -1.24141e-32 7.45443e-17 9.54166e-15 -1.14e-05 1.53e-05 9.94222 -100.45 12.7076 -173.346 25.9795 1e-06 1.42109e-14 -43.9494 -0.165809 -1.19932 21.2087 1.9e-06 -1e-06 52.5178 8.77635 -10.4857 10.4341 -1.9e-06 1e-06 -14.2994 -2.79358 4.37235 5.66763 6.59832 0 92.7591 15.2313 -6.02483 8.62785 3.55271e-15 2.84217e-14 -180 -3.23025e-14 -1.90833e-14 5.67414 -2.36194 -0.530567 -75.8081 4.38708 5.33411 -2.62874 -3.42539 -3.14618 29.7499 1.82752 90.2264 1.53e-05 -1.53e-05 -9.94222 -101.883 -17.279 176.899 25.9795 0 1e-06 -37.7871 -0.193489 2.59016 21.2087 -5.68434e-14 1.9e-06 53.6934 -16.5787 14.1184 10.4341 -1.9e-06 -1e-06 -13.4239 9.92072 -5.26772 5.66763 6.59831 0 85.8452 1.09278 -0.354427 8.62785 1.77636e-15 5.68434e-14 -9.93129e-32 -1.78906e-15 -3.18055e-15 5.67412 -2.36198 0.530356 -75.808 -4.38692 -5.33418 -2.62878 -3.42545 3.14601 29.7498 -1.82753 -90.2266
-58.1901 57.6329 597.504 87.6517 -21.4529 -171.357 53.2821 -6.35e-05 8.19533 -90 -81.2558 -180 0 0 0 -89.9999 -4.1675e-14 -90 10.4409 -1.622 1.78e-05 -0.135485 -1.33006 -3.24067 8.8514 -0.0089989 -2.84217e-14 -6.33485 2.52041 1.11167 11.3035 -0.0087814 0 -5.85877 6.35339 -0.966134 11.0297 -0.0113029 0 0.0863721 4.21444 -2.93441 14.948 -3.19349 8.6e-06 -45.9391 -9.62491 -37.0487 5.49578 -0.0042877 0 17.2755 3.89194 30.9509 5.52657 -0.0048637 0 -2.3915 2.91777 -0.919621 6.10934 0 0 36.4575 -2.63735 7.93636 28.6688 7.10543e-15 0 -0 0 -0 0.607494 2.35752 -7.6e-06 -156.427 -0.000147608 180 10.4683 2.1257 3.51896 -174.029 8.60147 -90.1167 7.34534 0 1.9e-06 -111.946 -89.3463 -17.8581 23.3863 -1.9e-06 1e-06 -1.03209 -0.59174 -1.25258 21.504 0 0 -86.8547 -5.84536 0.876525 1.59262 6.21256 -0.0138378 1.56975 -6.488 -4.84874 23.3657 -7.10543e-15 1e-06 -1.59028e-15 -2.38542e-15 -0 4.20345 4.44573 12.7354 172.377 0.21838 -87.1877 10.4683 2.12572 -3.51895 177.43 8.94207 93.936 7.34534 0 -1.9e-06 -37.962 67.7151 -52.3833 23.3863 1.9e-06 0 -12.888 3.97569e-16 4.47266e-15 21.504 3.8e-06 1e-06 -98.6477 -12.9232 23.5462 1.59262 6.21257 0.0138388 -14.4208 -3.6712 2.88815 23.3657 -2.84217e-14 1e-06 180 -4.77083e-15 -0 4.20337 4.4457 -12.7351 172.377 -0.218352 87.1876 -4.78895 3.85983 0.86083 129.563 9.27199 9.44902 4.22117 3.815e-05 -5.7e-06 -22.0188 -14.4301 -1.68955 4.97505 3.8e-06 -6.7e-06 -47.3764 -11.6837 8.69001 4.7171 -1.145e-05 2.86e-05 -6.36111e-15 -1.49089e-16 -3.04389e-16 9.71734 -4.2e-05 -5.72e-05 -3.18055e-15 -1.49089e-16 -2.85753e-16 8.26175 8.01e-05 5.7e-06 -1.01296e-33 -1.98785e-16 -2.91965e-16 9.75986 -6.48e-05 2.86e-05 2.02053e-32 6.21202e-16 -1.86361e-15 11.153 2.67e-05 -2.1e-05 2.4513e-32 6.70898e-16 -2.09345e-15 10.3039 1.14e-05 4.2e-05 -6.30404e-34 -4.96962e-17 -7.26806e-16 -11.9878 -1.78568 10.19 170.606 3.62573 1.11034 8.44238 1.53e-05 4.2e-05 -9.93923e-17 -4.22417e-16 6.36111e-15 9.95005 7.6e-06 -2.86e-05 3.03456e-32 -2.73329e-16 6.36111e-15 9.43418 -7.10543e-15 -4.58e-05 1.10348e-32 -9.93923e-17 6.36111e-15 9.71733 6.87e-05 0.0001106 9.93923e-17 2.23633e-16 -0 8.26175 -2.29e-05 -4.77e-05 -4.96564e-32 4.47266e-16 6.36111e-15 9.75994 2.86e-05 3.05e-05 -2.20695e-32 1.98785e-16 6.36111e-15 11.1529 -7.25e-05 -5.91e-05 -9.93923e-17 1.2424e-16 6.36111e-15 10.3039 -7.6e-06 0 -1.24141e-32 7.45443e-17 9.54166e-15 -1.14e-05 1.53e-05 9.94222 -100.45 12.7076 -173.346 25.9795 1e-06 1.42109e-14 -43.9494 -0.165809 -1.19932 21.2087 1.9e-06 -1e-06 52.5178 8.77635 -10.4857 10.4341 -1.9e-06 1e-06 -14.2994 -2.79358 4.37235 5.66763 6.59832 0 92.7591 15.2313 -6.02483 8.62785 3.55271e-15 2.84217e-14 -180 -3.23025e-14 -1.90833e-14 5.67414 -2.36194 -0.530567 -75.8081 4.38708 5.33411 -2.62874 -3.42539 -3.14618 29.7499 1.82752 90.2264 1.53e-05 -1.53e-05 -9.94222 -101.883 -17.279 176.899 25.9795 0 1e-06 -37.7871 -0.193489 2.59016 21.2087 -5.68434e-14 1.9e-06 53.6934 -16.5787 14.1184 10.4341 -1.9e-06 -1e-06 -13.4239 9.92072 -5.26772 5.66763 6.59831 0 85.8452 1.09278 -0.354427 8.62785 1.77636e-15 5.68434e-14 -9.93129e-32 -1.78906e-15 -3.18055e-15 5.67412 -2.36198 0.530356 -75.808 -4.38692 -5.33418 -2.62878 -3.42545 3.14601 29.7498 -1.82753 -90.2266
-59.4377 57.7654 596.279 92.3122 -20.9036 -169.156 53.2821 -6.35e-05 8.19533 -90 -81.2558 -180 0 0 0 -89.9999 -4.1675e-14 -90 10.4409 -1.622 1.78e-05 -0.191842 -1.24998 -3.12579 8.8514 -0.0089989 0 -6.32525 2.55239 1.09918 11.3035 -0.0087814 0 -5.91158 6.38437 -0.918333 11.0297 -0.0113029 0 -0.0797387 4.33047 -2.84156 14.948 -3.19349 8.6e-06 -44.9212 -9.03876 -37.7708 5.49578 -0.0042877 -7.10543e-15 16.3556 3.61655 32.7943 5.52657 -0.0048637 0 -2.42765 3.05236 -0.791969 6.10934 -5.68434e-14 -2.84217e-14 36.3492 -2.42281 8.48599 28.6688 -7.10543e-15 0 -3.97569e-16 -7.95139e-16 -3.18055e-15 0.607494 2.35752 -7.6e-06 -156.427 -0.000147608 180 10.4683 2.1257 3.51896 -173.979 8.91631 -89.9443 7.34534 0 1.9e-06 -102.289 -89.5211 -8.51647 23.3863 -1.9e-06 1e-06 -1.01447 -0.592125 -1.2524 21.504 0 1.42109e-14 -87.0024 -5.84758 0.861483 1.59262 6.21256 -0.0138378 1.14202 -6.81523 -5.3714 23.3657 0 1e-06 -1.59028e-15 -2.38542e-15 -1.59028e-15 4.20345 4.44573 12.7354 172.377 0.21838 -87.1877 10.4683 2.12572 -3.51895 177.581 8.74912 93.6766 7.34534 -1.42109e-14 -1.9e-06 -38.491 67.4452 -51.6631 23.3863 1.9e-06 0 -12.9175 2.78299e-15 -1.72694e-15 21.504 3.8e-06 1e-06 -98.6836 -12.6984 23.4024 1.59262 6.21257 0.0138388 -16.4923 -4.59472 2.62094 23.3657 0 1e-06 180 3.18055e-14 -6.36111e-15 4.20337 4.4457 -12.7351 172.377 -0.218352 87.1876 -4.78895 3.85983 0.86083 129.398 9.11336 8.84404 4.22117 3.815e-05 -5.7e-06 -22.1287 -14.1199 -1.94938 4.97505 3.8e-06 -6.7e-06 -47.0639 -12.3668 9.08864 4.7171 -1.145e-05 2.86e-05 -6.89673e-34 1.98785e-16 1.98785e-16 9.71734 -4.2e-05 -5.72e-05 -3.18055e-15 0 1.98785e-16 8.26175 8.01e-05 5.7e-06 2.75869e-33 -7.95139e-16 1.98785e-16 9.75986 -6.48e-05 2.86e-05 -3.18055e-15 -2.38542e-15 3.52843e-15 11.153 2.67e-05 -2.1e-05 -0 0 7.45443e-16 10.3039 1.14e-05 4.2e-05 -3.18055e-15 0 7.45443e-16 -11.9878 -1.78568 10.19 170.606 3.62573 1.11034 8.44238 1.53e-05 4.2e-05 -3.97569e-16 -1.09332e-15 -0 9.95005 7.6e-06 -2.86e-05 -3.97569e-16 -1.09332e-15 -3.18055e-15 9.43418 0 -4.58e-05 -1.21382e-31 -1.09332e-15 -6.36111e-15 9.71733 6.87e-05 0.0001106 -6.06912e-32 -1.09332e-15 -3.18055e-15 8.26175 -2.29e-05 -4.77e-05 -3.31043e-32 -2.98177e-16 -6.36111e-15 9.75994 2.86e-05 3.05e-05 -7.72434e-32 -6.95746e-16 -6.36111e-15 11.1529 -7.25e-05 -5.91e-05 3.97569e-16 9.93923e-17 -3.18055e-15 10.3039 -7.6e-06 2.84217e-14 3.97569e-16 2.98177e-16 -0 -1.14e-05 1.53e-05 9.94222 -100.475 12.5183 -173.328 25.9795 1e-06 0 -43.9321 -0.166172 -1.19927 21.2087 1.9e-06 -1e-06 52.5277 8.65516 -10.3182 10.4341 -1.9e-06 1e-06 -14.2911 -2.79295 4.37275 5.66763 6.59832 1.42109e-14 92.8661 15.3366 -6.73822 8.62785 5.32907e-15 -5.68434e-14 -180 1.01405e-13 -6.36111e-15 5.67414 -2.36194 -0.530567 -75.8081 4.38708 5.33411 -2.62874 -3.42539 -3.14618 29.7499 1.82752 90.2264 1.53e-05 -1.53e-05 -9.94222 -101.88 -17.4726 176.908 25.9795 0 1e-06 -37.7744 -0.192916 2.5902 21.2087 0 1.9e-06 53.7927 -17.0315 14.4179 10.4341 -1.9e-06 -1e-06 -13.4656 10.3228 -5.18763 5.66763 6.59831 -2.84217e-14 85.9253 0.720281 -0.639695 8.62785 0 0 -4.96962e-17 -1.49089e-16 -0 5.67412 -2.36198 0.530355 -75.808 -4.38692 -5.33418 -2.62878 -3.42545 3.14601 29.7498 -1.82753 -90.2266
-59.4379 57.7583 596.28 92.277 -20.9324 -169.184 53.2821 -6.35e-05 8.19533 -90 -81.2558 -180 0 0 0 -89.9999 -4.1675e-14 -90 10.4409 -1.622 1.78e-05 -0.123426 -1.27832 -3.17601 8.8514 -0.0089989 1.42109e-14 -6.37498 2.54835 1.09389 11.3035 -0.0087814 0 -5.95626 6.374 -0.902235 11.0297 -0.0113029 -1.42109e-14 -0.119602 4.33719 -2.80976 14.948 -3.19349 8.6e-06 -44.6083 -8.85283 -37.9589 5.49578 -0.0042877 -1.42109e-14 16.2122 3.36401 33.3878 5.52657 -0.0048637 0 -2.42042 2.93593 -0.808969 6.10934 5.68434e-14 0 36.3551 -2.5048 8.5939 28.6688 1.42109e-14 -2.84217e-14 3.97569e-16 -5.96354e-16 3.18055e-15 0.607494 2.35752 -7.6e-06 -156.427 -0.000147608 180 10.4683 2.1257 3.51896 -173.937 8.99733 -89.9949 7.34534 7.10543e-15 1.9e-06 -97.8766 -89.5781 -4.17073 23.3863 -1.9e-06 1e-06 -1.01795 -0.592049 -1.25243 21.504 0 -1.42109e-14 -87.0279 -5.84796 0.858887 1.59262 6.21256 -0.0138378 1.11326 -6.80201 -5.3893 23.3657 0 1e-06 1.32417e-31 2.38542e-15 -3.18055e-15 4.20345 4.44573 12.7354 172.377 0.21838 -87.1877 10.4683 2.12572 -3.51895 177.434 8.67525 93.6096 7.34534 0 -1.9e-06 -38.2419 67.2353 -51.8591 23.3863 1.9e-06 0 -12.9218 -3.97569e-16 -2.36678e-15 21.504 3.8e-06 1e-06 -98.6963 -12.7655 23.4043 1.59262 6.21257 0.0138388 -16.4626 -4.54628 2.62121 23.3657 0 1e-06 180 9.22361e-14 -0 4.20337 4.4457 -12.7351 172.377 -0.218352 87.1876 -4.78895 3.85983 0.86083 129.264 8.88254 8.29277 4.22117 3.815e-05 -5.7e-06 -22.3802 -14.5511 -2.44725 4.97505 3.8e-06 -6.7e-06 -47.0368 -12.1589 9.10232 4.7171 -1.145e-05 2.86e-05 3.18055e-15 3.97569e-16 -2.43511e-15 9.71734 -4.2e-05 -5.72e-05 5.73291e-32 1.39149e-15 -2.36057e-15 8.26175 8.01e-05 5.7e-06 -9.31058e-33 7.95139e-16 6.70898e-16 9.75986 -6.48e-05 2.86e-05 6.36111e-15 8.94531e-16 -5.69021e-15 11.153 2.67e-05 -2.1e-05 6.36111e-15 -5.96354e-16 -2.48481e-15 10.3039 1.14e-05 4.2e-05 -3.98286e-32 -1.19271e-15 -1.9133e-15 -11.9878 -1.78568 10.19 170.606 3.62573 1.11034 8.44238 1.53e-05 4.2e-05 -9.93129e-32 8.94531e-16 6.36111e-15 9.95005 7.6e-06 -2.86e-05 -3.97569e-16 5.96354e-16 -0 9.43418 -7.10543e-15 -4.58e-05 -0 5.96354e-16 -0 9.71733 6.87e-05 0.0001106 -0 5.96354e-16 -0 8.26175 -2.29e-05 -4.77e-05 -0 4.96962e-16 -0 9.75994 2.86e-05 3.05e-05 -3.97569e-16 4.96962e-16 -0 11.1529 -7.25e-05 -5.91e-05 3.97569e-16 4.96962e-16 -0 10.3039 -7.6e-06 5.68434e-14 3.97569e-16 4.96962e-16 -0 -1.14e-05 1.53e-05 9.94222 -100.402 12.5369 -173.39 25.9795 1e-06 1.42109e-14 -43.8669 -0.167537 -1.19908 21.2087 1.9e-06 -1e-06 52.5456 8.62328 -10.2626 10.4341 -1.9e-06 1e-06 -14.3281 -2.79577 4.37095 5.66763 6.59832 -2.84217e-14 92.8064 15.2989 -6.71303 8.62785 3.55271e-15 0 -180 -3.37934e-15 -9.54166e-15 5.67414 -2.36194 -0.530567 -75.8081 4.38708 5.33411 -2.62874 -3.42539 -3.14618 29.7499 1.82752 90.2264 1.53e-05 -1.53e-05 -9.94222 -101.901 -17.4693 176.851 25.9795 0 1e-06 -37.832 -0.19552 2.59001 21.2087 -5.68434e-14 1.9e-06 53.8665 -17.0768 14.4767 10.4341 -1.9e-06 -1e-06 -13.4737 10.3386 -5.20913 5.66763 6.59831 -2.84217e-14 85.9045 0.736149 -0.652025 8.62785 0 0 4.96962e-16 -1.73937e-16 -3.18055e-15 5.67412 -2.36198 0.530356 -75.808 -4.38692 -5.33418 -2.62878 -3.42545 3.14601 29.7498 -1.82753 -90.2266
